<?xml version="1.0" encoding="UTF-8" standalone="no"?>
<svg width="1068px" height="349px" viewBox="0 0 1068 349" version="1.1" xmlns="http://www.w3.org/2000/svg" xmlns:xlink="http://www.w3.org/1999/xlink">
    <!-- Generator: Sketch 39 (31667) - http://www.bohemiancoding.com/sketch -->
    <title>Group 2</title>
    <desc>Created with Sketch.</desc>
    <defs>
        <filter x="-50%" y="-50%" width="200%" height="200%" filterUnits="objectBoundingBox" id="filter-1">
            <feOffset dx="0" dy="0" in="SourceAlpha" result="shadowOffsetOuter1"></feOffset>
            <feGaussianBlur stdDeviation="2" in="shadowOffsetOuter1" result="shadowBlurOuter1"></feGaussianBlur>
            <feColorMatrix values="0 0 0 0 0   0 0 0 0 0   0 0 0 0 0  0 0 0 0.184358016 0" type="matrix" in="shadowBlurOuter1" result="shadowMatrixOuter1"></feColorMatrix>
            <feMerge>
                <feMergeNode in="shadowMatrixOuter1"></feMergeNode>
                <feMergeNode in="SourceGraphic"></feMergeNode>
            </feMerge>
        </filter>
        <path d="M489.366781,150.53559 C489.366781,150.53559 430.771947,4.86948521 244.683571,0.908952701 C58.5951943,-3.0515798 0.330191789,150.535588 0.330191789,150.535588 L489.366781,150.53559 Z" id="path-2"></path>
        <filter x="-50%" y="-50%" width="200%" height="200%" filterUnits="objectBoundingBox" id="filter-3">
            <feOffset dx="0" dy="-10" in="SourceAlpha" result="shadowOffsetOuter1"></feOffset>
            <feGaussianBlur stdDeviation="4" in="shadowOffsetOuter1" result="shadowBlurOuter1"></feGaussianBlur>
            <feColorMatrix values="0 0 0 0 0   0 0 0 0 0   0 0 0 0 0  0 0 0 0.0842674366 0" type="matrix" in="shadowBlurOuter1"></feColorMatrix>
        </filter>
        <ellipse id="path-4" cx="210.067416" cy="51.815625" rx="13.8202247" ry="10.1813345"></ellipse>
        <filter x="-50%" y="-50%" width="200%" height="200%" filterUnits="objectBoundingBox" id="filter-5">
            <feGaussianBlur stdDeviation="0.5" in="SourceAlpha" result="shadowBlurInner1"></feGaussianBlur>
            <feOffset dx="0" dy="1" in="shadowBlurInner1" result="shadowOffsetInner1"></feOffset>
            <feComposite in="shadowOffsetInner1" in2="SourceAlpha" operator="arithmetic" k2="-1" k3="1" result="shadowInnerInner1"></feComposite>
            <feColorMatrix values="0 0 0 0 0   0 0 0 0 0   0 0 0 0 0  0 0 0 0.167685688 0" type="matrix" in="shadowInnerInner1"></feColorMatrix>
        </filter>
        <ellipse id="path-6" cx="120.235955" cy="105.63125" rx="23.494382" ry="17.4537162"></ellipse>
        <filter x="-50%" y="-50%" width="200%" height="200%" filterUnits="objectBoundingBox" id="filter-7">
            <feGaussianBlur stdDeviation="0.5" in="SourceAlpha" result="shadowBlurInner1"></feGaussianBlur>
            <feOffset dx="0" dy="1" in="shadowBlurInner1" result="shadowOffsetInner1"></feOffset>
            <feComposite in="shadowOffsetInner1" in2="SourceAlpha" operator="arithmetic" k2="-1" k3="1" result="shadowInnerInner1"></feComposite>
            <feColorMatrix values="0 0 0 0 0   0 0 0 0 0   0 0 0 0 0  0 0 0 0.167685688 0" type="matrix" in="shadowInnerInner1"></feColorMatrix>
        </filter>
        <ellipse id="path-8" cx="246" cy="101.267821" rx="13.8202247" ry="10.1813345"></ellipse>
        <filter x="-50%" y="-50%" width="200%" height="200%" filterUnits="objectBoundingBox" id="filter-9">
            <feGaussianBlur stdDeviation="0.5" in="SourceAlpha" result="shadowBlurInner1"></feGaussianBlur>
            <feOffset dx="0" dy="1" in="shadowBlurInner1" result="shadowOffsetInner1"></feOffset>
            <feComposite in="shadowOffsetInner1" in2="SourceAlpha" operator="arithmetic" k2="-1" k3="1" result="shadowInnerInner1"></feComposite>
            <feColorMatrix values="0 0 0 0 0   0 0 0 0 0   0 0 0 0 0  0 0 0 0.167685688 0" type="matrix" in="shadowInnerInner1"></feColorMatrix>
        </filter>
        <ellipse id="path-10" cx="351.033708" cy="85.268581" rx="35.9325843" ry="26.1805743"></ellipse>
        <filter x="-50%" y="-50%" width="200%" height="200%" filterUnits="objectBoundingBox" id="filter-11">
            <feGaussianBlur stdDeviation="0.5" in="SourceAlpha" result="shadowBlurInner1"></feGaussianBlur>
            <feOffset dx="0" dy="1" in="shadowBlurInner1" result="shadowOffsetInner1"></feOffset>
            <feComposite in="shadowOffsetInner1" in2="SourceAlpha" operator="arithmetic" k2="-1" k3="1" result="shadowInnerInner1"></feComposite>
            <feColorMatrix values="0 0 0 0 0   0 0 0 0 0   0 0 0 0 0  0 0 0 0.167685688 0" type="matrix" in="shadowInnerInner1"></feColorMatrix>
        </filter>
    </defs>
    <g id="Page-1" stroke="none" stroke-width="1" fill="none" fill-rule="evenodd">
        <g id="Group-2" transform="translate(0.000000, 4.000000)">
            <path d="M982.604,113.5 L876.788,113.5 C873.607,113.5 871.028,110.922 871.028,107.74 L871.028,107.26 C871.028,104.078 873.607,101.5 876.788,101.5 L885.238,101.5 C888.419,101.5 890.998,98.922 890.998,95.74 L890.998,95.26 C890.998,92.912 889.592,90.898 887.578,90 L824.001,90 C820.82,90 818.241,87.421 818.241,84.24 L818.241,83.76 C818.241,80.579 820.82,78 824.001,78 L832.451,78 C835.632,78 838.211,75.422 838.211,72.24 L838.211,71.76 C838.211,68.579 835.632,66 832.451,66 L788.76,66 C785.579,66 783,63.421 783,60.24 L783,59.76 C783,56.579 785.579,54 788.76,54 L894.576,54 C897.757,54 900.336,56.579 900.336,59.76 L900.336,60.24 C900.336,63.421 897.757,66 894.576,66 L882.669,66 C879.488,66 876.909,68.579 876.909,71.76 L876.909,72.24 C876.909,74.587 878.315,76.603 880.329,77.5 L947.363,77.5 C950.544,77.5 953.123,80.079 953.123,83.26 L953.123,83.74 C953.123,86.922 950.544,89.5 947.363,89.5 L935.456,89.5 C932.275,89.5 929.696,92.078 929.696,95.26 L929.696,95.74 C929.696,98.922 932.275,101.5 935.456,101.5 L982.604,101.5 C985.785,101.5 988.364,104.078 988.364,107.26 L988.364,107.74 C988.364,110.922 985.785,113.5 982.604,113.5" id="Fill-293" fill-opacity="0.0700000003" fill="#000000"></path>
            <path d="M1061.604,253.5 L955.788,253.5 C952.607,253.5 950.028,250.922 950.028,247.74 L950.028,247.26 C950.028,244.078 952.607,241.5 955.788,241.5 L964.238,241.5 C967.419,241.5 969.998,238.922 969.998,235.74 L969.998,235.26 C969.998,232.912 968.592,230.898 966.578,230 L903.001,230 C899.82,230 897.241,227.421 897.241,224.24 L897.241,223.76 C897.241,220.579 899.82,218 903.001,218 L911.451,218 C914.632,218 917.211,215.422 917.211,212.24 L917.211,211.76 C917.211,208.579 914.632,206 911.451,206 L867.76,206 C864.579,206 862,203.421 862,200.24 L862,199.76 C862,196.579 864.579,194 867.76,194 L973.576,194 C976.757,194 979.336,196.579 979.336,199.76 L979.336,200.24 C979.336,203.421 976.757,206 973.576,206 L961.669,206 C958.488,206 955.909,208.579 955.909,211.76 L955.909,212.24 C955.909,214.587 957.315,216.603 959.329,217.5 L1026.363,217.5 C1029.544,217.5 1032.123,220.079 1032.123,223.26 L1032.123,223.74 C1032.123,226.922 1029.544,229.5 1026.363,229.5 L1014.456,229.5 C1011.275,229.5 1008.696,232.078 1008.696,235.26 L1008.696,235.74 C1008.696,238.922 1011.275,241.5 1014.456,241.5 L1061.604,241.5 C1064.785,241.5 1067.364,244.078 1067.364,247.26 L1067.364,247.74 C1067.364,250.922 1064.785,253.5 1061.604,253.5" id="Fill-293" fill-opacity="0.0700000003" fill="#000000"></path>
            <path d="M659.817,175 L554.001,175 C550.82,175 548.241,172.422 548.241,169.241 L548.241,168.76 C548.241,165.578 550.82,163 554.001,163 L562.451,163 C565.631,163 568.211,160.422 568.211,157.241 L568.211,156.76 C568.211,153.579 565.631,151 562.451,151 L518.759,151 C515.579,151 513,148.422 513,145.241 L513,144.76 C513,141.578 515.579,139 518.759,139 L624.576,139 C627.756,139 630.336,141.578 630.336,144.76 L630.336,145.241 C630.336,148.422 627.756,151 624.576,151 L612.669,151 C609.488,151 606.909,153.579 606.909,156.76 L606.909,157.241 C606.909,160.422 609.488,163 612.669,163 L659.817,163 C662.998,163 665.577,165.578 665.577,168.76 L665.577,169.241 C665.577,172.422 662.998,175 659.817,175" id="Fill-296" fill-opacity="0.0700000003" fill="#000000"></path>
            <path d="M583.817,260 L478.001,260 C474.82,260 472.241,257.422 472.241,254.241 L472.241,253.76 C472.241,250.578 474.82,248 478.001,248 L486.451,248 C489.631,248 492.211,245.422 492.211,242.241 L492.211,241.76 C492.211,238.579 489.631,236 486.451,236 L442.759,236 C439.579,236 437,233.422 437,230.241 L437,229.76 C437,226.578 439.579,224 442.759,224 L548.576,224 C551.756,224 554.336,226.578 554.336,229.76 L554.336,230.241 C554.336,233.422 551.756,236 548.576,236 L536.669,236 C533.488,236 530.909,238.579 530.909,241.76 L530.909,242.241 C530.909,245.422 533.488,248 536.669,248 L583.817,248 C586.998,248 589.577,250.578 589.577,253.76 L589.577,254.241 C589.577,257.422 586.998,260 583.817,260" id="Fill-296" fill-opacity="0.0700000003" fill="#000000"></path>
            <g id="Layer_1" filter="url(#filter-1)" transform="translate(743.500000, 93.000000) rotate(-360.000000) translate(-743.500000, -93.000000) translate(666.000000, 0.000000)">
                <g id="Group" transform="translate(0.000000, 0.000000)">
                    <path d="M117.579262,36.7814761 L77.5310764,36.7814761 L37.4828912,36.7814761 C37.4828912,36.7814761 0.104297758,96.6177643 0.104297758,123.310416 L0.104297758,132.334589 C0.104297758,133.629868 0.851918852,134.796488 1.99734821,135.29054 L44.9317201,153.774398 C45.3027617,153.933614 45.6981086,154.014348 46.0983782,154.014348 L77.5310764,154.014348 L108.963775,154.014348 C109.364352,154.014348 109.759391,153.933292 110.130433,153.774398 L153.064805,135.29054 C154.210234,134.796488 154.957855,133.629868 154.957855,132.334589 L154.957855,123.310416 C154.957855,96.6174426 117.579262,36.7814761 117.579262,36.7814761" id="Shape" fill="#E8EDEE"></path>
                    <path d="M98.8902727,78.6501521 C98.8902727,90.9818376 89.3265682,100.980284 77.5310764,100.980284 C65.7355846,100.980284 56.1718802,90.9821592 56.1718802,78.6501521 C56.1718802,66.318145 65.7352769,56.32002 77.5310764,56.32002 C89.3268759,56.32002 98.8902727,66.3184666 98.8902727,78.6501521" id="Shape" fill="#F3D55B"></path>
                    <path d="M88.2106745,78.6501521 C88.2106745,84.8161557 83.4289762,89.8152181 77.5310764,89.8152181 C71.6331767,89.8152181 66.8514783,84.8161557 66.8514783,78.6501521 C66.8514783,72.4841485 71.6331767,67.4850861 77.5310764,67.4850861 C83.4289762,67.4850861 88.2106745,72.4844702 88.2106745,78.6501521" id="Shape" fill="#CBB292"></path>
                    <g transform="translate(0.000000, 0.000000)" id="Shape" fill="#B0B6BB">
                        <path d="M37.4828912,36.7814761 L37.4828912,29.1918559 C37.4828912,24.1342534 67.7425613,0.200158007 77.5310764,0.200158007 C88.6014975,0.200158007 117.579262,24.1342534 117.579262,29.1918559 L117.579262,36.7814761 L37.4828912,36.7814761 Z"></path>
                        <path d="M0.104297758,123.310416 L0.104297758,132.334589 C0.104297758,133.629868 0.851918852,134.796488 1.99734821,135.29054 L45.4925897,154.014348 L45.4925897,154.014348 L77.5310764,154.014348 L109.569871,154.014348 L109.569871,154.014348 L153.065112,135.29054 C154.210542,134.796488 154.958163,133.629868 154.958163,132.334589 L154.958163,123.310416 C154.958163,122.417198 154.910167,121.482166 154.829867,120.51915 L0.232593229,120.51915 C0.152293186,121.482166 0.104297758,122.417198 0.104297758,123.310416"></path>
                    </g>
                    <g transform="translate(47.995428, 162.202556)" id="Shape" fill="#B6B6B6">
                        <path d="M2.83665288,14.1416021 C1.3629471,14.1416021 0.166753347,12.8910324 0.166753347,11.3503356 L0.166753347,2.9765361 C0.166753347,1.43583933 1.3629471,0.185269591 2.83665288,0.185269591 C4.31035865,0.185269591 5.5065524,1.43583933 5.5065524,2.9765361 L5.5065524,11.3503356 C5.5065524,12.8910324 4.31066632,14.1416021 2.83665288,14.1416021"></path>
                        <path d="M13.516251,22.5154016 C12.0425452,22.5154016 10.8463515,21.2648319 10.8463515,19.7241351 L10.8463515,11.3503356 C10.8463515,9.80963885 12.0425452,8.55906911 13.516251,8.55906911 C14.9899568,8.55906911 16.1861505,9.80963885 16.1861505,11.3503356 L16.1861505,19.7241351 C16.1861505,21.2648319 14.9899568,22.5154016 13.516251,22.5154016"></path>
                        <path d="M56.2346435,22.5154016 C54.7609377,22.5154016 53.5647439,21.2648319 53.5647439,19.7241351 L53.5647439,11.3503356 C53.5647439,9.80963885 54.7609377,8.55906911 56.2346435,8.55906911 C57.7083492,8.55906911 58.904543,9.80963885 58.904543,11.3503356 L58.904543,19.7241351 C58.904543,21.2648319 57.7083492,22.5154016 56.2346435,22.5154016"></path>
                        <path d="M45.5550453,14.1416021 C44.0813396,14.1416021 42.8851458,12.8910324 42.8851458,11.3503356 L42.8851458,2.9765361 C42.8851458,1.43583933 44.0813396,0.185269591 45.5550453,0.185269591 C47.0287511,0.185269591 48.2249449,1.43583933 48.2249449,2.9765361 L48.2249449,11.3503356 C48.2249449,12.8910324 47.0287511,14.1416021 45.5550453,14.1416021"></path>
                        <path d="M34.8754472,22.5154016 C33.4017414,22.5154016 32.2055477,21.2648319 32.2055477,19.7241351 L32.2055477,11.3503356 C32.2055477,9.80963885 33.4017414,8.55906911 34.8754472,8.55906911 C36.349153,8.55906911 37.5453467,9.80963885 37.5453467,11.3503356 L37.5453467,19.7241351 C37.5453467,21.2648319 36.349153,22.5154016 34.8754472,22.5154016"></path>
                        <path d="M24.1958491,11.3503356 C22.7221433,11.3503356 21.5259496,10.0997659 21.5259496,8.55906911 L21.5259496,2.9765361 C21.5259496,1.43583933 22.7221433,0.185269591 24.1958491,0.185269591 C25.6695549,0.185269591 26.8657486,1.43583933 26.8657486,2.9765361 L26.8657486,8.55906911 C26.8657486,10.0997659 25.6695549,11.3503356 24.1958491,11.3503356"></path>
                    </g>
                    <g transform="translate(47.995428, 134.219128)" id="Shape" fill="#E8EDEE">
                        <path d="M5.5065524,3.04762044 C5.5065524,4.58831721 4.31035865,5.83888694 2.83665288,5.83888694 C1.3629471,5.83888694 0.166753347,4.58831721 0.166753347,3.04762044 C0.166753347,1.50692367 1.3629471,0.25635393 2.83665288,0.25635393 C4.31035865,0.25635393 5.5065524,1.50660202 5.5065524,3.04762044"></path>
                        <path d="M18.85605,3.04762044 C18.85605,4.58831721 17.6598563,5.83888694 16.1861505,5.83888694 C14.7124447,5.83888694 13.516251,4.58831721 13.516251,3.04762044 C13.516251,1.50692367 14.7124447,0.25635393 16.1861505,0.25635393 C17.6598563,0.25635393 18.85605,1.50660202 18.85605,3.04762044"></path>
                        <path d="M32.2055477,3.04762044 C32.2055477,4.58831721 31.0093539,5.83888694 29.5356482,5.83888694 C28.0619424,5.83888694 26.8657486,4.58831721 26.8657486,3.04762044 C26.8657486,1.50692367 28.0619424,0.25635393 29.5356482,0.25635393 C31.0093539,0.25635393 32.2055477,1.50660202 32.2055477,3.04762044"></path>
                        <path d="M45.5550453,3.04762044 C45.5550453,4.58831721 44.3588516,5.83888694 42.8851458,5.83888694 C41.41144,5.83888694 40.2152463,4.58831721 40.2152463,3.04762044 C40.2152463,1.50692367 41.41144,0.25635393 42.8851458,0.25635393 C44.3588516,0.25635393 45.5550453,1.50660202 45.5550453,3.04762044"></path>
                        <path d="M58.904543,3.04762044 C58.904543,4.58831721 57.7083492,5.83888694 56.2346435,5.83888694 C54.7609377,5.83888694 53.5647439,4.58831721 53.5647439,3.04762044 C53.5647439,1.50692367 54.7609377,0.25635393 56.2346435,0.25635393 C57.7083492,0.25635393 58.904543,1.50660202 58.904543,3.04762044"></path>
                    </g>
                    <g transform="translate(4.922608, 56.058520)" id="Shape" fill="#B0B6BB">
                        <path d="M124.038646,0.261821956 L107.317162,0.261821956 C105.843456,0.261821956 104.647263,1.51239169 104.647263,3.05308846 C104.647263,4.59378523 105.843456,5.84435497 107.317162,5.84435497 L127.079588,5.84435497 C126.043686,3.90996032 125.026552,2.04536342 124.038646,0.261821956"></path>
                        <path d="M134.255212,19.8003659 L117.99553,19.8003659 C116.521824,19.8003659 115.32563,21.0509356 115.32563,22.5916324 C115.32563,24.1323291 116.521824,25.3828989 117.99553,25.3828989 L136.930342,25.3828989 C136.051964,23.5073659 135.160356,21.6453422 134.255212,19.8003659"></path>
                        <path d="M142.984842,39.3392314 L109.987677,39.3392314 C108.511202,39.3392314 107.317778,40.5898011 107.317778,42.1304979 C107.317778,43.6711947 108.511202,44.9217644 109.987677,44.9217644 L145.080642,44.9217644 C144.426551,43.0851509 143.729694,41.2234489 142.984842,39.3392314"></path>
                        <path d="M37.8997745,0.261821956 L21.1782904,0.261821956 C20.1903845,2.04536342 19.1732506,3.90996032 18.1373493,5.84435497 L37.8997745,5.84435497 C39.3734803,5.84435497 40.5696741,4.59378523 40.5696741,3.05308846 C40.5696741,1.51239169 39.373788,0.261821956 37.8997745,0.261821956"></path>
                        <path d="M27.2204841,25.3828989 C28.6941899,25.3828989 29.8903836,24.1323291 29.8903836,22.5916324 C29.8903836,21.0509356 28.6941899,19.8003659 27.2204841,19.8003659 L10.9608021,19.8003659 C10.0584265,21.6453422 9.16405017,23.5070443 8.2881336,25.3828989 L27.2204841,25.3828989 L27.2204841,25.3828989 Z"></path>
                        <path d="M35.229875,39.3392314 L2.2327104,39.3392314 C1.48785828,41.2234489 0.791001577,43.0851509 0.136910036,44.9217644 L35.229875,44.9217644 C36.7035808,44.9217644 37.8997745,43.6711947 37.8997745,42.1304979 C37.8997745,40.5898011 36.7038884,39.3392314 35.229875,39.3392314"></path>
                    </g>
                </g>
            </g>
            <g id="Group-3" transform="translate(498.000000, 194.000000)">
                <g id="Oval-3">
                    <use fill="black" fill-opacity="1" filter="url(#filter-3)" xlink:href="#path-2"></use>
                    <use fill="#FFD586" fill-rule="evenodd" xlink:href="#path-2"></use>
                </g>
                <g id="Oval-4">
                    <use fill="#E7B27E" fill-rule="evenodd" xlink:href="#path-4"></use>
                    <use fill="black" fill-opacity="1" filter="url(#filter-5)" xlink:href="#path-4"></use>
                </g>
                <g id="Oval-4">
                    <use fill="#E7B27E" fill-rule="evenodd" xlink:href="#path-6"></use>
                    <use fill="black" fill-opacity="1" filter="url(#filter-7)" xlink:href="#path-6"></use>
                </g>
                <g id="Oval-4">
                    <use fill="#E7B27E" fill-rule="evenodd" xlink:href="#path-8"></use>
                    <use fill="black" fill-opacity="1" filter="url(#filter-9)" xlink:href="#path-8"></use>
                </g>
                <g id="Oval-4">
                    <use fill="#E7B27E" fill-rule="evenodd" xlink:href="#path-10"></use>
                    <use fill="black" fill-opacity="1" filter="url(#filter-11)" xlink:href="#path-10"></use>
                </g>
            </g>
            <path d="M-2.84217094e-14,125.605886 L12.5478358,94.0398759 L18.7870911,94.0398759 L31.3349269,125.605886 L25.2343217,125.605886 L22.3457775,118.026346 L8.98914938,118.026346 L6.10060523,125.605886 L-2.84217094e-14,125.605886 Z M10.930251,112.873184 L20.3584591,112.873184 L15.6674634,100.487106 L10.930251,112.873184 Z M36.7496762,134.363952 L36.7496762,109.614906 C36.7496762,107.44271 37.5623118,105.574803 39.1876075,104.01113 C40.8129031,102.447457 43.3124316,101.665632 46.6862681,101.665632 C47.471956,101.665632 48.2537808,101.727254 49.0317659,101.850499 C49.809751,101.973744 50.7263732,102.297258 51.7816599,102.82105 C52.8369467,103.344842 53.7420148,104.02268 54.4968914,104.854585 C55.2517681,105.68649 55.9064982,106.907369 56.4611014,108.517259 C57.0157047,110.127149 57.2930022,111.987353 57.2930022,114.097926 C57.2930022,117.949338 56.3455691,120.907178 54.4506747,122.971534 C52.5557803,125.035891 49.8444273,126.068053 46.3165344,126.068053 C44.9916489,126.068053 43.697594,125.929405 42.4343311,125.652103 L42.4343311,134.363952 L36.7496762,134.363952 Z M42.4343311,121.400166 C43.743811,121.585034 44.9069198,121.677466 45.9236924,121.677466 C47.7569642,121.677466 49.1550056,121.142128 50.1178585,120.071436 C51.0807114,119.000743 51.5621306,117.109729 51.5621306,114.398335 C51.5621306,111.625319 51.2001033,109.622615 50.476038,108.390163 C49.7519726,107.157712 48.4887286,106.541495 46.6862681,106.541495 C43.8516292,106.541495 42.4343311,107.388793 42.4343311,109.083414 L42.4343311,121.400166 Z M62.615318,113.820626 C62.615318,109.907592 63.5781565,106.903536 65.5038622,104.808368 C67.4295679,102.713201 70.1909885,101.665632 73.7882068,101.665632 C77.3854251,101.665632 80.1468457,102.713201 82.0725514,104.808368 C83.9982571,106.903536 84.9610956,109.907592 84.9610956,113.820626 C84.9610956,117.73366 83.9982571,120.737716 82.0725514,122.832884 C80.1468457,124.928052 77.3854251,125.97562 73.7882068,125.97562 C70.1909885,125.97562 67.4295679,124.928052 65.5038622,122.832884 C63.5781565,120.737716 62.615318,117.73366 62.615318,113.820626 L62.615318,113.820626 Z M68.2999729,113.83218 C68.2999729,116.766956 68.7505813,118.746552 69.6518116,119.771027 C70.5530419,120.795503 71.9356778,121.307733 73.799761,121.307733 C75.6638441,121.307733 77.0426287,120.795503 77.9361562,119.771027 C78.8296836,118.746552 79.2764407,116.766956 79.2764407,113.83218 C79.2764407,110.897405 78.8296836,108.913958 77.9361562,107.881779 C77.0426287,106.849601 75.6638441,106.33352 73.799761,106.33352 C71.9356778,106.33352 70.5530419,106.849601 69.6518116,107.881779 C68.7505813,108.913958 68.2999729,110.897405 68.2999729,113.83218 L68.2999729,113.83218 Z M91.6236959,125.605886 L91.6236959,93 L97.3083508,93 L97.3083508,125.605886 L91.6236959,125.605886 Z M105.657861,125.605886 L105.657861,93 L111.342516,93 L111.342516,125.605886 L105.657861,125.605886 Z M118.166875,113.820626 C118.166875,109.907592 119.129713,106.903536 121.055419,104.808368 C122.981125,102.713201 125.742545,101.665632 129.339763,101.665632 C132.936982,101.665632 135.698402,102.713201 137.624108,104.808368 C139.549814,106.903536 140.512652,109.907592 140.512652,113.820626 C140.512652,117.73366 139.549814,120.737716 137.624108,122.832884 C135.698402,124.928052 132.936982,125.97562 129.339763,125.97562 C125.742545,125.97562 122.981125,124.928052 121.055419,122.832884 C119.129713,120.737716 118.166875,117.73366 118.166875,113.820626 L118.166875,113.820626 Z M123.85153,113.83218 C123.85153,116.766956 124.302138,118.746552 125.203368,119.771027 C126.104599,120.795503 127.487234,121.307733 129.351318,121.307733 C131.215401,121.307733 132.594185,120.795503 133.487713,119.771027 C134.38124,118.746552 134.827997,116.766956 134.827997,113.83218 C134.827997,110.897405 134.38124,108.913958 133.487713,107.881779 C132.594185,106.849601 131.215401,106.33352 129.351318,106.33352 C127.487234,106.33352 126.104599,106.849601 125.203368,107.881779 C124.302138,108.913958 123.85153,110.897405 123.85153,113.83218 L123.85153,113.83218 Z M163.820662,125.605886 L163.820662,94.0398759 L175.605922,94.0398759 C179.334088,94.0398759 182.2149,94.9642008 184.248446,96.8128783 C186.281991,98.6615558 187.298748,101.272774 187.298748,104.64661 C187.298748,108.020446 186.281991,110.627813 184.248446,112.468788 C182.2149,114.309762 179.334088,115.230236 175.605922,115.230236 L169.505316,115.230236 L169.505316,125.605886 L163.820662,125.605886 Z M169.505316,110.077073 L175.189971,110.077073 C177.685686,110.077073 179.387984,109.618762 180.296917,108.702126 C181.20585,107.78549 181.66031,106.433665 181.66031,104.64661 C181.66031,102.874961 181.201999,101.538541 180.285363,100.637311 C179.368727,99.7360804 177.67028,99.2854721 175.189971,99.2854721 L169.505316,99.2854721 L169.505316,110.077073 Z M192.990798,125.605886 L192.990798,104.115118 C193.375939,103.93025 193.907426,103.710723 194.585274,103.45653 C195.263123,103.202337 196.626502,102.840309 198.675453,102.370437 C200.724404,101.900565 202.757918,101.650227 204.776058,101.619416 L204.776058,106.541495 C202.403589,106.572306 200.370074,106.834198 198.675453,107.327179 L198.675453,125.605886 L192.990798,125.605886 Z M208.827414,113.820626 C208.827414,109.907592 209.790253,106.903536 211.715959,104.808368 C213.641664,102.713201 216.403085,101.665632 220.000303,101.665632 C223.597522,101.665632 226.358942,102.713201 228.284648,104.808368 C230.210354,106.903536 231.173192,109.907592 231.173192,113.820626 C231.173192,117.73366 230.210354,120.737716 228.284648,122.832884 C226.358942,124.928052 223.597522,125.97562 220.000303,125.97562 C216.403085,125.97562 213.641664,124.928052 211.715959,122.832884 C209.790253,120.737716 208.827414,117.73366 208.827414,113.820626 L208.827414,113.820626 Z M214.512069,113.83218 C214.512069,116.766956 214.962678,118.746552 215.863908,119.771027 C216.765138,120.795503 218.147774,121.307733 220.011857,121.307733 C221.875941,121.307733 223.254725,120.795503 224.148253,119.771027 C225.04178,118.746552 225.488537,116.766956 225.488537,113.83218 C225.488537,110.897405 225.04178,108.913958 224.148253,107.881779 C223.254725,106.849601 221.875941,106.33352 220.011857,106.33352 C218.147774,106.33352 216.765138,106.849601 215.863908,107.881779 C214.962678,108.913958 214.512069,110.897405 214.512069,113.83218 L214.512069,113.83218 Z M233.191013,130.343099 C234.269409,130.281476 235.132112,130.146679 235.779149,129.938703 C236.426186,129.730726 236.86524,129.407213 237.096325,128.968152 C237.32741,128.529091 237.46991,128.151658 237.52383,127.835842 C237.577749,127.520027 237.604709,127.015499 237.604709,126.322245 L237.604709,101.989149 L243.266255,101.989149 L243.266255,125.929403 C243.266255,126.946176 243.212336,127.816582 243.104497,128.540647 C242.996657,129.264713 242.738617,130.031132 242.330367,130.839928 C241.922117,131.648725 241.363671,132.303455 240.655011,132.804138 C239.946352,133.304822 238.960405,133.736173 237.697142,134.098206 C236.433879,134.460239 234.931851,134.672063 233.191013,134.733686 L233.191013,130.343099 Z M237.512275,98.7770883 L237.512275,93.5777088 L243.312472,93.5777088 L243.312472,98.7770883 L237.512275,98.7770883 Z M249.212497,114.05171 C249.212497,110.261921 250.055943,107.234757 251.742861,104.970127 C253.42978,102.705497 256.10647,101.573199 259.773014,101.573199 C263.239284,101.573199 265.862056,102.674686 267.641408,104.877694 C269.42076,107.080701 270.310423,109.792054 270.310423,113.011834 C270.310423,114.336719 270.279612,115.314963 270.21799,115.946595 L255.035802,115.946595 C255.189858,117.995546 255.802223,119.366627 256.872916,120.059882 C257.943608,120.753136 259.333947,121.099757 261.043974,121.099757 C263.81699,121.099757 266.497532,120.491244 269.08568,119.274198 L269.08568,123.849651 C266.466721,125.266971 263.501178,125.97562 260.188965,125.97562 C259.141381,125.97562 258.155434,125.89089 257.231095,125.721428 C256.306757,125.551966 255.340067,125.197641 254.330997,124.658444 C253.321927,124.119246 252.451521,123.433705 251.719753,122.6018 C250.987985,121.769896 250.387174,120.618341 249.917302,119.147102 C249.447429,117.675862 249.212497,115.977415 249.212497,114.05171 L249.212497,114.05171 Z M255.035802,112.018175 L264.556443,112.018175 C264.402387,110.385176 263.920968,109.006392 263.112171,107.881779 C262.303375,106.757167 261.190334,106.19487 259.773014,106.19487 C258.355695,106.19487 257.250356,106.653181 256.456965,107.569817 C255.663575,108.486453 255.189858,109.969224 255.035802,112.018175 L255.035802,112.018175 Z M275.517197,113.820626 C275.517197,109.876781 276.480036,106.85732 278.405741,104.762152 C280.331447,102.666984 283.089016,101.619416 286.678532,101.619416 C288.989379,101.619416 291.261677,102.05847 293.495496,102.936592 L293.495496,107.673804 C291.631413,106.918928 289.674925,106.541495 287.625974,106.541495 C285.453778,106.541495 283.840061,107.03832 282.784774,108.031984 C281.729488,109.025648 281.201852,110.955176 281.201852,113.820626 C281.201852,116.655265 281.729488,118.577091 282.784774,119.58616 C283.840061,120.59523 285.453778,121.099757 287.625974,121.099757 C289.582491,121.099757 291.538979,120.706919 293.495496,119.921231 L293.495496,124.658444 C291.261677,125.536566 288.989379,125.97562 286.678532,125.97562 C283.089016,125.97562 280.331447,124.928052 278.405741,122.832884 C276.480036,120.737716 275.517197,117.73366 275.517197,113.820626 L275.517197,113.820626 Z M296.784277,106.865012 L296.784277,101.989149 L300.758914,101.989149 L300.758914,94.9873184 L306.443569,94.9873184 L306.443569,101.989149 L312.03579,101.989149 L312.03579,106.865012 L306.443569,106.865012 L306.443569,118.511622 C306.443569,119.528395 306.655393,120.213935 307.079048,120.568265 C307.502703,120.922595 308.253717,121.099757 309.332113,121.099757 C310.348885,121.099757 311.250102,120.930298 312.03579,120.591374 L312.03579,125.282369 C310.926583,125.744539 309.717258,125.97562 308.407779,125.97562 L308.292237,125.97562 C305.950579,125.97562 304.109632,125.282376 302.76934,123.895868 C301.429049,122.50936 300.758914,120.599089 300.758914,118.164997 L300.758914,106.865012 L296.784277,106.865012 Z" id="Apollo-Project" fill="#FFFFFF"></path>
            <text id="A-set-of-React-Compo" font-family="MavenProMedium, Maven Pro" font-size="32" font-weight="400" letter-spacing="0.379999995" fill="#FFFFFF">
                <tspan x="0" y="194">A set of React Components </tspan>
                <tspan x="0" y="232">using Saturn-V styles.</tspan>
            </text>
        </g>
    </g>
</svg>