<?xml version="1.0" encoding="UTF-8" standalone="no"?>
<svg width="259px" height="36px" viewBox="0 0 259 36" version="1.1" xmlns="http://www.w3.org/2000/svg" xmlns:xlink="http://www.w3.org/1999/xlink">
    <!-- Generator: Sketch 39 (31667) - http://www.bohemiancoding.com/sketch -->
    <title>logo-apollo</title>
    <desc>Created with Sketch.</desc>
    <defs></defs>
    <g id="Page-1" stroke="none" stroke-width="1" fill="none" fill-rule="evenodd">
        <g id="logo-apollo">
            <path d="M48,28.046875 L56.484375,6.703125 L60.703125,6.703125 L69.1875,28.046875 L65.0625,28.046875 L63.109375,22.921875 L54.078125,22.921875 L52.125,28.046875 L48,28.046875 Z M55.390625,19.4375 L61.765625,19.4375 L58.59375,11.0625 L55.390625,19.4375 Z M72.84875,33.96875 L72.84875,17.234375 C72.84875,15.7656177 73.3982237,14.5026095 74.4971875,13.4453125 C75.5961513,12.3880155 77.2862386,11.859375 79.5675,11.859375 C80.0987527,11.859375 80.6273932,11.9010412 81.1534375,11.984375 C81.6794818,12.0677088 82.2992673,12.2864566 83.0128125,12.640625 C83.7263577,12.9947934 84.3383308,13.4531222 84.84875,14.015625 C85.3591692,14.5781278 85.8018731,15.4036404 86.176875,16.4921875 C86.5518769,17.5807346 86.739375,18.8385345 86.739375,20.265625 C86.739375,22.8698047 86.0987564,24.8697847 84.8175,26.265625 C83.5362436,27.6614653 81.7029286,28.359375 79.3175,28.359375 C78.4216622,28.359375 77.5466709,28.2656259 76.6925,28.078125 L76.6925,33.96875 L72.84875,33.96875 Z M76.6925,25.203125 C77.5779211,25.3281256 78.3643716,25.390625 79.051875,25.390625 C80.2914645,25.390625 81.2367676,25.0286495 81.8878125,24.3046875 C82.5388574,23.5807255 82.864375,22.3020925 82.864375,20.46875 C82.864375,18.5937406 82.6195858,17.2395875 82.13,16.40625 C81.6404142,15.5729125 80.7862561,15.15625 79.5675,15.15625 C77.6508237,15.15625 76.6925,15.7291609 76.6925,16.875 L76.6925,25.203125 Z M90.338125,20.078125 C90.338125,17.4322784 90.9891601,15.4010488 92.29125,13.984375 C93.5933398,12.5677012 95.4605087,11.859375 97.8928125,11.859375 C100.325116,11.859375 102.192285,12.5677012 103.494375,13.984375 C104.796465,15.4010488 105.4475,17.4322784 105.4475,20.078125 C105.4475,22.7239716 104.796465,24.7552012 103.494375,26.171875 C102.192285,27.5885488 100.325116,28.296875 97.8928125,28.296875 C95.4605087,28.296875 93.5933398,27.5885488 92.29125,26.171875 C90.9891601,24.7552012 90.338125,22.7239716 90.338125,20.078125 L90.338125,20.078125 Z M94.181875,20.0859375 C94.181875,22.0703224 94.4865594,23.4088507 95.0959375,24.1015625 C95.7053155,24.7942743 96.640202,25.140625 97.900625,25.140625 C99.161048,25.140625 100.09333,24.7942743 100.6975,24.1015625 C101.30167,23.4088507 101.60375,22.0703224 101.60375,20.0859375 C101.60375,18.1015526 101.30167,16.7604202 100.6975,16.0625 C100.09333,15.3645798 99.161048,15.015625 97.900625,15.015625 C96.640202,15.015625 95.7053155,15.3645798 95.0959375,16.0625 C94.4865594,16.7604202 94.181875,18.1015526 94.181875,20.0859375 L94.181875,20.0859375 Z M109.9525,28.046875 L109.9525,6 L113.79625,6 L113.79625,28.046875 L109.9525,28.046875 Z M119.441875,28.046875 L119.441875,6 L123.285625,6 L123.285625,28.046875 L119.441875,28.046875 Z M127.9,20.078125 C127.9,17.4322784 128.551035,15.4010488 129.853125,13.984375 C131.155215,12.5677012 133.022384,11.859375 135.454687,11.859375 C137.886991,11.859375 139.75416,12.5677012 141.05625,13.984375 C142.35834,15.4010488 143.009375,17.4322784 143.009375,20.078125 C143.009375,22.7239716 142.35834,24.7552012 141.05625,26.171875 C139.75416,27.5885488 137.886991,28.296875 135.454687,28.296875 C133.022384,28.296875 131.155215,27.5885488 129.853125,26.171875 C128.551035,24.7552012 127.9,22.7239716 127.9,20.078125 L127.9,20.078125 Z M131.74375,20.0859375 C131.74375,22.0703224 132.048434,23.4088507 132.657812,24.1015625 C133.267191,24.7942743 134.202077,25.140625 135.4625,25.140625 C136.722923,25.140625 137.655205,24.7942743 138.259375,24.1015625 C138.863545,23.4088507 139.165625,22.0703224 139.165625,20.0859375 C139.165625,18.1015526 138.863545,16.7604202 138.259375,16.0625 C137.655205,15.3645798 136.722923,15.015625 135.4625,15.015625 C134.202077,15.015625 133.267191,15.3645798 132.657812,16.0625 C132.048434,16.7604202 131.74375,18.1015526 131.74375,20.0859375 L131.74375,20.0859375 Z M158.769375,28.046875 L158.769375,6.703125 L166.738125,6.703125 C169.258971,6.703125 171.206868,7.32811875 172.581875,8.578125 C173.956882,9.82813125 174.644375,11.5937386 174.644375,13.875 C174.644375,16.1562614 173.956882,17.9192646 172.581875,19.1640625 C171.206868,20.4088604 169.258971,21.03125 166.738125,21.03125 L162.613125,21.03125 L162.613125,28.046875 L158.769375,28.046875 Z M162.613125,17.546875 L166.456875,17.546875 C168.144383,17.546875 169.295414,17.2369823 169.91,16.6171875 C170.524586,15.9973927 170.831875,15.0833394 170.831875,13.875 C170.831875,12.6770773 170.521982,11.7734405 169.902187,11.1640625 C169.282393,10.5546845 168.133967,10.25 166.456875,10.25 L162.613125,10.25 L162.613125,17.546875 Z M178.493125,28.046875 L178.493125,13.515625 C178.753543,13.3906244 179.112914,13.2421884 179.57125,13.0703125 C180.029586,12.8984366 180.951451,12.6536474 182.336875,12.3359375 C183.722299,12.0182276 185.097285,11.8489584 186.461875,11.828125 L186.461875,15.15625 C184.8577,15.1770834 183.482714,15.354165 182.336875,15.6875 L182.336875,28.046875 L178.493125,28.046875 Z M189.20125,20.078125 C189.20125,17.4322784 189.852285,15.4010488 191.154375,13.984375 C192.456465,12.5677012 194.323634,11.859375 196.755937,11.859375 C199.188241,11.859375 201.05541,12.5677012 202.3575,13.984375 C203.65959,15.4010488 204.310625,17.4322784 204.310625,20.078125 C204.310625,22.7239716 203.65959,24.7552012 202.3575,26.171875 C201.05541,27.5885488 199.188241,28.296875 196.755937,28.296875 C194.323634,28.296875 192.456465,27.5885488 191.154375,26.171875 C189.852285,24.7552012 189.20125,22.7239716 189.20125,20.078125 L189.20125,20.078125 Z M193.045,20.0859375 C193.045,22.0703224 193.349684,23.4088507 193.959062,24.1015625 C194.568441,24.7942743 195.503327,25.140625 196.76375,25.140625 C198.024173,25.140625 198.956455,24.7942743 199.560625,24.1015625 C200.164795,23.4088507 200.466875,22.0703224 200.466875,20.0859375 C200.466875,18.1015526 200.164795,16.7604202 199.560625,16.0625 C198.956455,15.3645798 198.024173,15.015625 196.76375,15.015625 C195.503327,15.015625 194.568441,15.3645798 193.959062,16.0625 C193.349684,16.7604202 193.045,18.1015526 193.045,20.0859375 L193.045,20.0859375 Z M205.675,31.25 C206.40417,31.2083331 206.987498,31.1171882 207.425,30.9765625 C207.862502,30.8359368 208.159374,30.617189 208.315625,30.3203125 C208.471876,30.023436 208.568229,29.7682302 208.604687,29.5546875 C208.641146,29.3411448 208.659375,29.0000023 208.659375,28.53125 L208.659375,12.078125 L212.4875,12.078125 L212.4875,28.265625 C212.4875,28.9531284 212.451042,29.5416642 212.378125,30.03125 C212.305208,30.5208358 212.13073,31.0390598 211.854687,31.5859375 C211.578644,32.1328152 211.201044,32.5755191 210.721875,32.9140625 C210.242706,33.2526059 209.576046,33.5442696 208.721875,33.7890625 C207.867704,34.0338554 206.852089,34.1770831 205.675,34.21875 L205.675,31.25 Z M208.596875,9.90625 L208.596875,6.390625 L212.51875,6.390625 L212.51875,9.90625 L208.596875,9.90625 Z M216.508125,20.234375 C216.508125,17.6718622 217.078432,15.6250077 218.219062,14.09375 C219.359693,12.5624923 221.169571,11.796875 223.64875,11.796875 C225.992512,11.796875 227.765931,12.5416592 228.969062,14.03125 C230.172193,15.5208408 230.77375,17.3541558 230.77375,19.53125 C230.77375,20.4270878 230.752917,21.0885395 230.71125,21.515625 L220.445625,21.515625 C220.549792,22.9010486 220.96385,23.8281227 221.687812,24.296875 C222.411774,24.7656273 223.351869,25 224.508125,25 C226.383134,25 228.195616,24.5885458 229.945625,23.765625 L229.945625,26.859375 C228.174783,27.8177131 226.169594,28.296875 223.93,28.296875 C223.221663,28.296875 222.555003,28.2395839 221.93,28.125 C221.304997,28.0104161 220.651358,27.7708352 219.969062,27.40625 C219.286767,27.0416648 218.698232,26.5781278 218.203437,26.015625 C217.708643,25.4531222 217.302397,24.6744841 216.984687,23.6796875 C216.666978,22.6848909 216.508125,21.5364648 216.508125,20.234375 L216.508125,20.234375 Z M220.445625,18.859375 L226.883125,18.859375 C226.778958,17.7552028 226.45344,16.8229205 225.906562,16.0625 C225.359685,15.3020795 224.607088,14.921875 223.64875,14.921875 C222.690412,14.921875 221.943023,15.2317677 221.406562,15.8515625 C220.870101,16.4713573 220.549792,17.4739514 220.445625,18.859375 L220.445625,18.859375 Z M234.294375,20.078125 C234.294375,17.411445 234.94541,15.3697988 236.2475,13.953125 C237.54959,12.5364512 239.414154,11.828125 241.84125,11.828125 C243.403758,11.828125 244.940201,12.124997 246.450625,12.71875 L246.450625,15.921875 C245.190202,15.4114558 243.867299,15.15625 242.481875,15.15625 C241.013118,15.15625 239.921983,15.4921841 239.208437,16.1640625 C238.494892,16.8359409 238.138125,18.1406153 238.138125,20.078125 C238.138125,21.9948012 238.494892,23.2942674 239.208437,23.9765625 C239.921983,24.6588576 241.013118,25 242.481875,25 C243.804798,25 245.127702,24.7343777 246.450625,24.203125 L246.450625,27.40625 C244.940201,28.000003 243.403758,28.296875 241.84125,28.296875 C239.414154,28.296875 237.54959,27.5885488 236.2475,26.171875 C234.94541,24.7552012 234.294375,22.7239716 234.294375,20.078125 L234.294375,20.078125 Z M248.674375,15.375 L248.674375,12.078125 L251.361875,12.078125 L251.361875,7.34375 L255.205625,7.34375 L255.205625,12.078125 L258.986875,12.078125 L258.986875,15.375 L255.205625,15.375 L255.205625,23.25 C255.205625,23.9375034 255.348853,24.4010405 255.635312,24.640625 C255.921772,24.8802095 256.42958,25 257.15875,25 C257.846253,25 258.455622,24.8854178 258.986875,24.65625 L258.986875,27.828125 C258.236871,28.1406266 257.419171,28.296875 256.53375,28.296875 L256.455625,28.296875 C254.872284,28.296875 253.627504,27.8281297 252.72125,26.890625 C251.814995,25.9531203 251.361875,24.6614666 251.361875,23.015625 L251.361875,15.375 L248.674375,15.375 Z" id="Apollo-Project" fill="#FFFFFF"></path>
            <g id="Group" transform="translate(16.040001, 17.990759) rotate(-360.000000) translate(-16.040001, -17.990759) ">
                <path d="M24.304198,7.15189698 L16.0260458,7.15189698 L7.7478936,7.15189698 C7.7478936,7.15189698 0.0215588473,18.775502 0.0215588473,23.9607308 L0.0215588473,25.7137376 C0.0215588473,25.9653544 0.176095718,26.1919781 0.412861466,26.2879511 L9.28760231,29.878566 C9.36429839,29.9094948 9.4460185,29.9251779 9.52875614,29.9251779 L16.0260458,29.9251779 L22.5233355,29.9251779 C22.6061367,29.9251779 22.6877932,29.9094323 22.7644893,29.878566 L31.6392302,26.2879511 C31.8759959,26.1919781 32.0305328,25.9653544 32.0305328,25.7137376 L32.0305328,23.9607308 C32.0305328,18.7754395 24.304198,7.15189698 24.304198,7.15189698" id="Shape" fill="#E8EDEE"></path>
                <path d="M20.4410942,15.2851714 C20.4410942,17.680685 18.4642306,19.6229511 16.0260458,19.6229511 C13.587861,19.6229511 11.6109974,17.6807475 11.6109974,15.2851714 C11.6109974,12.8895953 13.5877974,10.9473917 16.0260458,10.9473917 C18.4642942,10.9473917 20.4410942,12.8896578 20.4410942,15.2851714" id="Shape" fill="#F3D55B"></path>
                <path d="M18.23357,15.2851714 C18.23357,16.4829595 17.24517,17.4540613 16.0260458,17.4540613 C14.8069216,17.4540613 13.8185216,16.4829595 13.8185216,15.2851714 C13.8185216,14.0873834 14.8069216,13.1162816 16.0260458,13.1162816 C17.24517,13.1162816 18.23357,14.0874459 18.23357,15.2851714" id="Shape" fill="#CBB292"></path>
                <g transform="translate(0.000000, 0.000000)" id="Shape" fill="#B0B6BB">
                    <path d="M7.7478936,7.15189698 L7.7478936,5.67756174 C7.7478936,4.69508813 14.0027127,0.0457276749 16.0260458,0.0457276749 C18.314355,0.0457276749 24.304198,4.69508813 24.304198,5.67756174 L24.304198,7.15189698 L7.7478936,7.15189698 Z"></path>
                    <path d="M0.0215588473,23.9607308 L0.0215588473,25.7137376 C0.0215588473,25.9653544 0.176095718,26.1919781 0.412861466,26.2879511 L9.40353676,29.9251779 L9.40353676,29.9251779 L16.0260458,29.9251779 L22.6486185,29.9251779 L22.6486185,29.9251779 L31.6392938,26.2879511 C31.8760595,26.1919781 32.0305964,25.9653544 32.0305964,25.7137376 L32.0305964,23.9607308 C32.0305964,23.7872171 32.0206755,23.6055807 32.0040771,23.4185083 L0.0480781374,23.4185083 C0.0314797328,23.6055807 0.0215588473,23.7872171 0.0215588473,23.9607308"></path>
                </g>
                <g transform="translate(9.920886, 31.515793)" id="Shape" fill="#B6B6B6">
                    <path d="M0.586349771,2.74710218 C0.28172771,2.74710218 0.0344687176,2.50417053 0.0344687176,2.20487972 L0.0344687176,0.578212337 C0.0344687176,0.278921534 0.28172771,0.0359898753 0.586349771,0.0359898753 C0.890971833,0.0359898753 1.13823083,0.278921534 1.13823083,0.578212337 L1.13823083,2.20487972 C1.13823083,2.50417053 0.891035428,2.74710218 0.586349771,2.74710218"></path>
                    <path d="M2.79387399,4.37376957 C2.48925193,4.37376957 2.24199293,4.13083791 2.24199293,3.83154711 L2.24199293,2.20487972 C2.24199293,1.90558892 2.48925193,1.66265726 2.79387399,1.66265726 C3.09849605,1.66265726 3.34575504,1.90558892 3.34575504,2.20487972 L3.34575504,3.83154711 C3.34575504,4.13083791 3.09849605,4.37376957 2.79387399,4.37376957"></path>
                    <path d="M11.6239708,4.37376957 C11.3193488,4.37376957 11.0720898,4.13083791 11.0720898,3.83154711 L11.0720898,2.20487972 C11.0720898,1.90558892 11.3193488,1.66265726 11.6239708,1.66265726 C11.9285929,1.66265726 12.1758519,1.90558892 12.1758519,2.20487972 L12.1758519,3.83154711 C12.1758519,4.13083791 11.9285929,4.37376957 11.6239708,4.37376957"></path>
                    <path d="M9.41644663,2.74710218 C9.11182457,2.74710218 8.86456558,2.50417053 8.86456558,2.20487972 L8.86456558,0.578212337 C8.86456558,0.278921534 9.11182457,0.0359898753 9.41644663,0.0359898753 C9.72106869,0.0359898753 9.96832769,0.278921534 9.96832769,0.578212337 L9.96832769,2.20487972 C9.96832769,2.50417053 9.72106869,2.74710218 9.41644663,2.74710218"></path>
                    <path d="M7.20892242,4.37376957 C6.90430036,4.37376957 6.65704136,4.13083791 6.65704136,3.83154711 L6.65704136,2.20487972 C6.65704136,1.90558892 6.90430036,1.66265726 7.20892242,1.66265726 C7.51354448,1.66265726 7.76080347,1.90558892 7.76080347,2.20487972 L7.76080347,3.83154711 C7.76080347,4.13083791 7.51354448,4.37376957 7.20892242,4.37376957"></path>
                    <path d="M5.0013982,2.20487972 C4.69677614,2.20487972 4.44951715,1.96194806 4.44951715,1.66265726 L4.44951715,0.578212337 C4.44951715,0.278921534 4.69677614,0.0359898753 5.0013982,0.0359898753 C5.30602026,0.0359898753 5.55327926,0.278921534 5.55327926,0.578212337 L5.55327926,1.66265726 C5.55327926,1.96194806 5.30602026,2.20487972 5.0013982,2.20487972"></path>
                </g>
                <g transform="translate(9.920886, 26.079822)" id="Shape" fill="#E8EDEE">
                    <path d="M1.13823083,0.592020952 C1.13823083,0.891311756 0.890971833,1.13424341 0.586349771,1.13424341 C0.28172771,1.13424341 0.0344687176,0.891311756 0.0344687176,0.592020952 C0.0344687176,0.292730149 0.28172771,0.0497984907 0.586349771,0.0497984907 C0.890971833,0.0497984907 1.13823083,0.292667667 1.13823083,0.592020952"></path>
                    <path d="M3.89763609,0.592020952 C3.89763609,0.891311756 3.6503771,1.13424341 3.34575504,1.13424341 C3.04113298,1.13424341 2.79387399,0.891311756 2.79387399,0.592020952 C2.79387399,0.292730149 3.04113298,0.0497984907 3.34575504,0.0497984907 C3.6503771,0.0497984907 3.89763609,0.292667667 3.89763609,0.592020952"></path>
                    <path d="M6.65704136,0.592020952 C6.65704136,0.891311756 6.40978237,1.13424341 6.10516031,1.13424341 C5.80053825,1.13424341 5.55327926,0.891311756 5.55327926,0.592020952 C5.55327926,0.292730149 5.80053825,0.0497984907 6.10516031,0.0497984907 C6.40978237,0.0497984907 6.65704136,0.292667667 6.65704136,0.592020952"></path>
                    <path d="M9.41644663,0.592020952 C9.41644663,0.891311756 9.16918764,1.13424341 8.86456558,1.13424341 C8.55994352,1.13424341 8.31268452,0.891311756 8.31268452,0.592020952 C8.31268452,0.292730149 8.55994352,0.0497984907 8.86456558,0.0497984907 C9.16918764,0.0497984907 9.41644663,0.292667667 9.41644663,0.592020952"></path>
                    <path d="M12.1758519,0.592020952 C12.1758519,0.891311756 11.9285929,1.13424341 11.6239708,1.13424341 C11.3193488,1.13424341 11.0720898,0.891311756 11.0720898,0.592020952 C11.0720898,0.292730149 11.3193488,0.0497984907 11.6239708,0.0497984907 C11.9285929,0.0497984907 12.1758519,0.292667667 12.1758519,0.592020952"></path>
                </g>
                <g transform="translate(1.017527, 10.896594)" id="Shape" fill="#B0B6BB">
                    <path d="M25.6393839,0.0508606918 L22.1829728,0.0508606918 C21.8783507,0.0508606918 21.6310917,0.29379235 21.6310917,0.593083153 C21.6310917,0.892373957 21.8783507,1.13530562 22.1829728,1.13530562 L26.267961,1.13530562 C26.0538352,0.759536327 25.8435888,0.397325724 25.6393839,0.0508606918"></path>
                    <path d="M27.751197,3.84635544 L24.3902426,3.84635544 C24.0856206,3.84635544 23.8383616,4.0892871 23.8383616,4.3885779 C23.8383616,4.68786871 24.0856206,4.93080036 24.3902426,4.93080036 L28.3041591,4.93080036 C28.1225942,4.56646536 27.9382947,4.20475462 27.751197,3.84635544"></path>
                    <path d="M29.5556534,7.64191267 L22.734981,7.64191267 C22.4297866,7.64191267 22.1831,7.88484433 22.1831,8.18413513 C22.1831,8.48342594 22.4297866,8.7263576 22.734981,8.7263576 L29.9888654,8.7263576 C29.8536616,8.36958296 29.7096179,8.0079347 29.5556534,7.64191267"></path>
                    <path d="M7.83406539,0.0508606918 L4.37765432,0.0508606918 C4.17344943,0.397325724 3.96320297,0.759536327 3.74907719,1.13530562 L7.83406539,1.13530562 C8.13868746,1.13530562 8.38594645,0.892373957 8.38594645,0.593083153 C8.38594645,0.29379235 8.13875105,0.0508606918 7.83406539,0.0508606918"></path>
                    <path d="M5.62660477,4.93080036 C5.93122684,4.93080036 6.17848583,4.68786871 6.17848583,4.3885779 C6.17848583,4.0892871 5.93122684,3.84635544 5.62660477,3.84635544 L2.26565043,3.84635544 C2.07912506,4.20475462 1.89425318,4.56640288 1.71319702,4.93080036 L5.62660477,4.93080036 L5.62660477,4.93080036 Z"></path>
                    <path d="M7.28218434,7.64191267 L0.461511962,7.64191267 C0.307547451,8.0079347 0.163503825,8.36958296 0.0282999618,8.7263576 L7.28218434,8.7263576 C7.5868064,8.7263576 7.83406539,8.48342594 7.83406539,8.18413513 C7.83406539,7.88484433 7.58687,7.64191267 7.28218434,7.64191267"></path>
                </g>
            </g>
        </g>
    </g>
</svg>